<?xml version="1.0" encoding="UTF-8" standalone="no"?>
<svg
   data-v-423bf9ae=""
   viewBox="0 0 1024 1024"
   class="iconLeft"
   version="1.1"
   id="svg2"
   width="1024"
   height="1024"
   xmlns="http://www.w3.org/2000/svg"
   xmlns:svg="http://www.w3.org/2000/svg">
  <defs
     id="defs2" />
  <g
     data-v-423bf9ae=""
     id="fbcb5a7c-0a0a-4dee-a95d-3cc5b1d17665"
     transform="matrix(12.77145,0,0,12.543176,-62.707817,-52.455562)"
     stroke="none"
     fill="#0d7ce9">
    <path
       d="m 82.263,7.008 c -3.768,-3.768 -9.878,-3.768 -13.647,0 -3.377,3.377 -3.725,8.633 -1.05,12.4 L 56.107,30.867 a 12.47,12.47 0 0 0 -7.142,-2.238 c -2.873,0 -5.522,0.972 -7.639,2.602 l -8.049,-8.049 a 7.445,7.445 0 0 0 -11.676,-9.054 7.445,7.445 0 0 0 9.08,11.66 l 8.088,8.088 a 12.5,12.5 0 0 0 -2.255,5.796 H 24.047 C 23.22,35.183 19.288,31.781 14.56,31.782 a 9.65,9.65 0 0 0 -9.65,9.65 c 0,5.329 4.32,9.65 9.65,9.65 4.672,0 8.569,-3.321 9.458,-7.731 h 12.598 c 0.934,5.303 5.211,9.467 10.569,10.232 v 13.092 c -4.511,0.809 -7.935,4.751 -7.935,9.495 0,5.329 4.32,9.65 9.65,9.65 5.329,0 9.65,-4.32 9.65,-9.65 0,-4.657 -3.299,-8.542 -7.686,-9.449 V 53.566 c 6.018,-0.917 10.643,-6.127 10.643,-12.397 0,-2.939 -1.016,-5.644 -2.715,-7.784 L 70.225,21.95 c 3.736,2.405 8.768,1.974 12.038,-1.296 a 9.65,9.65 0 0 0 0,-13.646 M 48.966,49.913 c -4.821,0 -8.744,-3.922 -8.744,-8.744 0,-4.822 3.922,-8.744 8.744,-8.744 4.822,0 8.744,3.922 8.744,8.744 -10e-4,4.821 -3.923,8.744 -8.744,8.744"
       id="path2" />
  </g>
</svg>
